/* XPM */
static char *_83bee5ed1b4455285e241a5a9cd1615XwHTkaxvHiGcnVvt[] = {
/* columns rows colors chars-per-pixel */
"32 32 13 1 ",
"  c None",
". c black",
"X c #361B00",
"o c gray19",
"O c #690000",
"+ c #663400",
"@ c #8B0000",
"# c #BF6100",
"$ c #E07200",
"% c #E0923F",
"& c #F5B675",
"* c #AEB4B8",
"= c #F1F9FF",
/* pixels */
"  ......   ...........          ",
"  .XXXX.  .@@@@@@@@@@O.         ",
"   ....   .@@@@@@@@@@O.         ",
"   .++.  .@@@@@@@@@@@@O.        ",
"   .$+.  .@..@@@@@@@@@O.        ",
"   .++. .@.&&.@@@@@@@@@O.       ",
"   .+$. .@.&&.@@@@@@@@@O.       ",
"   .++..@.&&&&.@@@@@@@@@O.      ",
"   .$++.@.&&&&.@@@@@@@@@O.      ",
"   .++.@.&&&&&&.@@@@@@@@@O.     ",
"   .+$.O.&&&&&&.@@......@O.     ",
"   .+.@.&&&&&&&&.@@.*=.+.@O.    ",
"   .+.O.&&...&&&.@@.*=.+.@O.    ",
"   ..@.&&.**=.&&&.@@.*.++.@O.   ",
"   ..O.&.****=.&&.@@.*.++.@O.   ",
"   .@.&&.*****.&&&.@@..+++.@O.  ",
"   .O.&&.......&&&.@@......@O.  ",
"  .@.&&&&&&&&&&&&&&.@OOOOOO@@O. ",
"  .O.&&&&&&&&&&&&&&.@@@@@@@@@O. ",
" .O.&&&&&&...&&&&&&&.@@@@@@@@@@.",
"  ..&&&&&.ooo.&&&&&&............",
"   .&&&&.%oooo.&&&&&.&&&&&&&&&&.",
"   .&&&.$%#oooo.&&&&.&&&&&&&&&&.",
"   .&&&.$%#oooo.&&&&.&........&.",
"   .&&.%$X#ooooo.&&&.&.***.*=.&.",
"   .&&.%$%#ooooo.&&&.&.***.*=.&.",
"   .++.%$%#ooooo.+++.+.***.**.+.",
"   .+$.%$%#ooooo.$$+.+.***.**.+.",
"   .++.%$%#ooooo.+++.+.***.**.$.",
"   .$+.%$%oooooo.+$$.+........+.",
"   .++.%$ooooooo.+++.++++++++++.",
"   ............................."
};
