/* XPM */
static char *_4c5d854bc3a485bc8a1b5534df987d1fzUfaxbVe1mSs0Tz[] = {
/* columns rows colors chars-per-pixel */
"32 32 11 1 ",
"  c None",
". c black",
"X c #361B00",
"o c #690000",
"O c #663400",
"+ c #8B0000",
"@ c #E07200",
"# c #E0923F",
"$ c #F5B675",
"% c #AEB4B8",
"& c #F1F9FF",
/* pixels */
"  ......   ...........          ",
"  .XXXX.  .++++++++++o.         ",
"   ....   .++++++++++o.         ",
"   .OO.  .++++++++++++o.        ",
"   .@O.  .+..+++++++++o.        ",
"   .OO. .+.$$.+++++++++o.       ",
"   .O@. .+.$$.+++++++++o.       ",
"   .OO..+.$$$$.+++++++++o.      ",
"   .@OO.+.$$$$.+++++++++o.      ",
"   .OO.+.$$$$$$.+++++++++o.     ",
"   .O@.+.$$$$$$.++......+o.     ",
"   .O.+.$$$$$$$$.++.%&.O.+o.    ",
"   .O.+.$$...$$$.++.%&.O.+o.    ",
"   ..+.$$.%%&.$$$.++.%.OO.+o.   ",
"   ..o.$.%%%%&.$$.++.%.OO.+o.   ",
"   .+.$$.%%%%%.$$$.++..OOO.+o.  ",
"   .o.$$.......$$$.++......+o.  ",
"  .+.$$$$$$$$$$$$$$.+oooooo++o. ",
"  .o.$$$$$$$$$$$$$$.+++++++++o. ",
" .o.$$$$$$...$$$$$$$.++++++++++.",
"  ..$$$$$.@#@.$$$$$$............",
"   .$$$$.#@#@#.$$$$$.$$$$$$$$$$.",
"   .$$$.@#@#@#@.$$$$.$$$$$$$$$$.",
"   .$$$.@#@#@#@.$$$$.$........$.",
"   .$$.#@#@#@#@#.$$$.$.%%%.%&.$.",
"   .$$.#@#@#@#@#.$$$.$.%%%.%&.$.",
"   .OO.#@#@#@X@#.OOO.O.%%%.%%.O.",
"   .O@.#@#@#@#@#.@@O.O.%%%.%%.O.",
"   .OO.#@#@#@#@#.OOO.O.%%%.%%.@.",
"   .@O.#@#@#@#@#.O@@.O........O.",
"   .OO.#@#@#@#@#.OOO.OOOOOOOOOO.",
"   ............................."
};
