/* XPM */
static char *_0caa448da3e4b1bbd0aa53963a8dc88FO96paUGpXcPwkd3[] = {
/* columns rows colors chars-per-pixel */
"32 32 5 1 ",
"  c None",
". c #212124",
"X c #5B5B63",
"o c #9494A1",
"O c white",
/* pixels */
"          .........             ",
"        ..OOOOOoooo..           ",
"       .OOOOOOOOOOooo.          ",
"      .OOOOOOOOOOOOooo.         ",
"     .OOOOOOOOOOOOOooo.         ",
"     .OOOOOOOOOOOOOOooo.        ",
"    .OOOOOOOOOOOOOOOooo.        ",
"    .OOOOOOOOOOOOOOOooo.        ",
"    .OOOOOOOOOOOOOOOOooo.       ",
"    .OOOOOOOOOOOOOOOOooo.       ",
"    .OOOOOOOOOOOOOOOOooo.       ",
"    .OOOOOOOOOOOOOOOOooo.       ",
"    .OoOOOOOOOOOOOOOOoooo.      ",
"    .ooOOOOOOOOOOOOOOoooo.      ",
"    .ooOOOOOOOOOOOOOOOooo.      ",
"    .ooOOOOOOOOOOOOOOOOoo.      ",
"    .ooOOOOOOOOOOOOOOOOoo.      ",
"    ..oOOOOOOOOOOOOOOOOoo.      ",
"    X.oOOOoOOOOoOOOOOOOOoo.     ",
"     .oOOOoOOOOoOOOOOOOOoo.     ",
"     .oOOOoOOOOOoOOOOOOOoo.     ",
"     .oOOOoOOOOOoOOOOOOOOo.     ",
"     .oOOOoOOOOOoOOOOOoOOoo.    ",
"     .oOOOoOOOOOOoOOOOoOOoo.    ",
"     .oOOOooOOOOOoOOoOooOoo.    ",
"     .ooOOooOOOOOooOoOOoOooo.   ",
"      .oOOooOOOOOooOoOOoOooo.   ",
"      .ooooooooOOooOOoOoOoooo.  ",
"      ..oooooooooooOOOooooooo.  ",
"      ..oooooo....oooooooo.ooo. ",
"       .......    ..............",
"                                "
};
