/* XPM */
static char *_5968b7a08e44094ee9e51df6098bdd4U8ndvzBxjKMJ5Tsz[] = {
/* columns rows colors chars-per-pixel */
"32 32 5 1 ",
"  c None",
". c #212124",
"X c #5B5B63",
"o c #9494A1",
"O c white",
/* pixels */
"             .........          ",
"           ..ooooOOOOO..        ",
"          .oooOOOOOOOOOO.       ",
"         .oooOOOOOOOOOOOO.      ",
"         .oooOOOOOOOOOOOOO.     ",
"        .oooOOOOOOO.OOO.OO.     ",
"        .oooOOOOOO..OOO..OO.    ",
"        .oooOOOOO...OOO...O.    ",
"       .oooOOOOOO...OOO...O.    ",
"       .oooOOOOOOOOOOOOOOOO.    ",
"       .oooOOOOOOOOOOOOOOOO...  ",
"       .oooO...OOOOO...OOoOOOO. ",
"      .oooo.OOO.OOOOOOOOOooOOOO.",
"      .ooo.OOOOO.OOOOOOOOoooOOO.",
"      .ooOOOOOOO.OOOOOOOOooooO. ",
"      .ooOOOOO..OOOOOOOOOooo..  ",
"      .ooOOOO.X.OOOOOOOOOoo.X.  ",
"      .ooOOOO.X.OOOOOOOOOo.X.   ",
"     .ooOOOO.X.OOOOOOoOOOo.X.   ",
"     .ooOOO.XX.OOOOOOoOOOo..    ",
"     .ooOOO.X.OOOOOOOoOOOo.     ",
"     .oOOoO..OOOOOOOOoOOOo.     ",
"    .ooOOoO.OOOOOOOOOoOOOo.     ",
"    .ooOoo.OOOoOOOOOOoOOOo.     ",
"    .ooOoOOOOOoOOOOOooOOOo.     ",
"   .oooOoOOOOooOOOOOooOOoo.     ",
"   .oooOoOOoOooOOOOOooOOo.      ",
"  .ooooooOoOOooOOOo.....o.      ",
"  .oooooooOOOooooo.XXXXX..      ",
" .ooo.oooooooo....XXXXXX..      ",
"..............    .......       ",
"                                "
};
