/* XPM */
static char *_f2436fda181466ff4019fa23e0d1a4b8jub2EN2LHdBa1cg[] = {
/* columns rows colors chars-per-pixel */
"32 32 5 1 ",
"  c None",
". c #212124",
"X c #5B5B63",
"o c #9494A1",
"O c white",
/* pixels */
"          .........             ",
"        ..OOOOOoooo..           ",
"       .OOOOOOOOOOooo.          ",
"      .OOOOOOOOOOOOooo.         ",
"     .OOOOOOOOOOOOOooo.         ",
"     .OO.OOO.OOOOOOOooo.        ",
"    .OO..OOO..OOOOOOooo.        ",
"    .O...OOO...OOOOOooo.        ",
"    .O...OOO...OOOOOOooo.       ",
"    .OOOOOOOOOOOOOOOOooo.       ",
"  ...OOOOOOOOOOOOOOOOooo.       ",
" .OOOOoOO...OOOOO...Oooo.       ",
".OOOOooOOOOOOOOO.OOO.oooo.      ",
".OOOoooOOOOOOOO.OOOOO.ooo.      ",
" .OooooOOOOOOOO.OOOOOOOoo.      ",
"  ..oooOOOOOOOOO..OOOOOoo.      ",
"  .X.ooOOOOOOOOO.X.OOOOoo.      ",
"   .X.oOOOOOOOOO.X.OOOOoo.      ",
"   .X.oOOOoOOOOOO.X.OOOOoo.     ",
"    ..oOOOoOOOOOO.XX.OOOoo.     ",
"     .oOOOoOOOOOOO.X.OOOoo.     ",
"     .oOOOoOOOOOOOO..OoOOo.     ",
"     .oOOOoOOOOOOOOO.OoOOoo.    ",
"     .oOOOoOOOOOOoOOO.ooOoo.    ",
"     .oOOOooOOOOOoOOOOOoOoo.    ",
"     .ooOOooOOOOOooOOOOoOooo.   ",
"      .oOOooOOOOOooOoOOoOooo.   ",
"      .o.....oOOOooOOoOoooooo.  ",
"      ..XXXXX.oooooOOOooooooo.  ",
"      ..XXXXXX....oooooooo.ooo. ",
"       .......    ..............",
"                                "
};
