/* XPM */
static char *_54548e3a1564582f33dc465e819b039GqvjY66frwSgwfNt[] = {
/* columns rows colors chars-per-pixel */
"32 32 5 1 ",
"  c None",
". c #212124",
"X c #5B5B63",
"o c #9494A1",
"O c white",
/* pixels */
"             .........          ",
"           ..ooooOOOOO..        ",
"          .oooOOOOOOOOOO.       ",
"         .oooOOOOOOOOOOOO.      ",
"         .oooOOOOOOOOOOOOO.     ",
"        .oooOOOOOOO.OOO.OO.     ",
"        .oooOOOOOO..OOO..OO.    ",
"        .oooOOOOO...OOO...O.    ",
"       .oooOOOOOO...OOO...O.    ",
"       .oooOOOOOOOOOOOOOOOO.    ",
"       .oooOOOOOOOOOO.OOOOO.    ",
"       .oooOOOOOOOOO.O.OOOOO..  ",
"      .ooooO...OOOOOO.OOOoOOOO. ",
"      .oooo.OOO.OOOOOOOOOooOOOO.",
"      .ooo.OOOOO.OOOOOOOOoooOOO.",
"      .ooOOOOOOO.OOOOOOOOooooO. ",
"      .ooOOOOO..OOOOOOOOOoo...  ",
"      .ooOOOO.X.OOOOOOOOOo.XX.  ",
"     .ooOOOOO.X.OOOOOoOOOo.X.   ",
"     .ooOOOO.X.OOOOOOoOOOo..    ",
"     .ooOOO.XX.OOOOOOoOOOo.     ",
"     .oOOOO.X.OOOOOOOoOOOo.     ",
"    .ooOOoO..OOOOOOOOoOOOo.     ",
"    .ooOOoO.OOoOOOOOOoOOOo.     ",
"    .ooOoo.OOOoOOOOOooOOOo.     ",
"   .oooOoOOOOooOOOOOooOOoo.     ",
"   .oooOoOOoOooOOOOOooOOo.      ",
"  .ooooOoOoOOooOOOo.....o.      ",
"  .oooooooOOOooooo.XXXXX..      ",
" .ooo.oooooooo....XXXXXX..      ",
"..............    .......       ",
"                                "
};
