/* XPM */
static char *e94daac36f0c4d46a4838688b0160172Y3CcrGSWiWdP73Fk[] = {
/* columns rows colors chars-per-pixel */
"32 32 5 1 ",
"  c None",
". c #212124",
"X c #5B5B63",
"o c #9494A1",
"O c white",
/* pixels */
"          .........             ",
"        ..OOOOOoooo..           ",
"       .OOOOOOOOOOooo.          ",
"      .OOOOOOOOOOOOooo.         ",
"     .OOOOOOOOOOOOOooo.         ",
"     .OO.OOO.OOOOOOOooo.        ",
"    .OO..OOO..OOOOOOooo.        ",
"    .O...OOO...OOOOOooo.        ",
"    .O...OOO...OOOOOOooo.       ",
"    .OOOOOOOOOOOOOOOOooo.       ",
"    .OOOOO.OOOOOOOOOOooo.       ",
"  ..OOOOO.O.OOOOOOOOOooo.       ",
" .OOOOoOOO.OOOOOO...Ooooo.      ",
".OOOOooOOOOOOOOO.OOO.oooo.      ",
".OOOoooOOOOOOOO.OOOOO.ooo.      ",
" .OooooOOOOOOOO.OOOOOOOoo.      ",
"  ...ooOOOOOOOOO..OOOOOoo.      ",
"  .XX.oOOOOOOOOO.X.OOOOoo.      ",
"   .X.oOOOoOOOOO.X.OOOOOoo.     ",
"    ..oOOOoOOOOOO.X.OOOOoo.     ",
"     .oOOOoOOOOOO.XX.OOOoo.     ",
"     .oOOOoOOOOOOO.X.OOOOo.     ",
"     .oOOOoOOOOOOOO..OoOOoo.    ",
"     .oOOOoOOOOOOoOO.OoOOoo.    ",
"     .oOOOooOOOOOoOOO.ooOoo.    ",
"     .ooOOooOOOOOooOOOOoOooo.   ",
"      .oOOooOOOOOooOoOOoOooo.   ",
"      .o.....oOOOooOOoOoOoooo.  ",
"      ..XXXXX.oooooOOOooooooo.  ",
"      ..XXXXXX....oooooooo.ooo. ",
"       .......    ..............",
"                                "
};
