/* XPM */
static char *_a0d4ad551e74fa5e9afbc1e75763ce5UdyDUcsAVyW0XyWd[] = {
/* columns rows colors chars-per-pixel */
"32 32 3 1 ",
"  c #52964A",
". c #4EAD44",
"X c #75C96A",
/* pixels */
"           X                    ",
"            X  X                ",
"            X X                 ",
"  .         X X         .       ",
".  .                  .  .      ",
" . .  .                . .  .   ",
" . . .                 . . .    ",
"                                ",
"                                ",
"                                ",
"                                ",
"             .    .             ",
"              .  .              ",
"           .  . .               ",
"            . . .               ",
"            . . .    X          ",
"                      X  X      ",
"                      X X  X    ",
" X                    X X X     ",
"  X  X                X X X     ",
"  X X                           ",
"  X X                           ",
"                                ",
"                                ",
"                                ",
"           X                    ",
"       X  X             .   .   ",
"        X X  X        .  . .    ",
"        X X X          . . .    ",
"        X X X          . . .    ",
"                                ",
"                                "
};
