/* XPM */
static char *_4182e09125946cba0b4e7e137927bb0omED0KMrkE5lyHPp[] = {
/* columns rows colors chars-per-pixel */
"32 32 23 1 ",
"  c None",
". c gray10",
"X c #541600",
"o c #00376B",
"O c gray37",
"+ c gray44",
"@ c #A91919",
"# c #9F3131",
"$ c #8E6500",
"% c #9F492A",
"& c #874C37",
"* c #9F632A",
"= c #D25A5A",
"- c #D26F6F",
"; c #B68100",
": c #C38A00",
"> c #2C6398",
", c #3574B0",
"< c #4888C5",
"1 c #689BCA",
"2 c #8B8B8B",
"3 c #B4B4B4",
"4 c white",
/* pixels */
"                                ",
"                                ",
"                                ",
"                                ",
"     @===                       ",
"    @@<<<<                      ",
"    @<===--=                    ",
"   @@#=======                   ",
"   @@###====#                   ",
"   @@########                   ",
"   @@########                   ",
"   @@##..**.#                   ",
"   @@##4.**.#                   ",
"   @@  %***%                    ",
"   @@  oooo                     ",
"   @@ >,<<1>                    ",
"   @ >>,<<1>                    ",
"     >>,<<<1>   X    ..     ..  ",
"    >> ,,<<1>  X     .2.   .2.  ",
"    >> ,,<11>>X      .+2...+2.  ",
"    %% ::::$&&  ..  .++++++++2. ",
"      >>,,$$X  .+.  .++++++++2. ",
"      ,,<<,,   .3.  .+++>+++>2. ",
"     ,,,<<11   .++. .++++333++. ",
"     ,,<<<11    .3+...++33333.  ",
"    ,,<<<11      .+3+3.......   ",
"    >><<<<<       .3+3+++++2.   ",
"     :>>>$$       .+++OOO++2.   ",
"     ;;  $$$      .+.+...+.2.   ",
"                                ",
"                                ",
"                                "
};
