/* XPM */
static char *_f8c04d7c7ff4ab2fdbce0071bc9bf57b9TkaQuCgko4XpC7[] = {
/* columns rows colors chars-per-pixel */
"32 32 24 1 ",
"  c None",
". c #252525",
"X c #343434",
"o c #541600",
"O c #00376B",
"+ c gray37",
"@ c gray44",
"# c #A91919",
"$ c #9F3131",
"% c #8E6500",
"& c #9F492A",
"* c #874C37",
"= c #9F632A",
"- c #D25A5A",
"; c #D26F6F",
": c #B68100",
"> c #C38A00",
", c #2C6398",
"< c #3574B0",
"1 c #4888C5",
"2 c #689BCA",
"3 c #8B8B8B",
"4 c #B4B4B4",
"5 c white",
/* pixels */
"                                ",
"                                ",
"                                ",
"                                ",
"     #---                       ",
"    ##1111                      ",
"    #1---;;-                    ",
"   ##$-------                   ",
"   ##$$$----$                   ",
"   ##$$$$$$$$                   ",
"   ##$$$$$$$$                   ",
"   ##$$..==.$                   ",
"   ##$$5.==.$                   ",
"   ##  &===&                    ",
"   ##  OOOO                     ",
"   ## ,<112,                    ",
"   # ,,<112,                    ",
"     ,,<1112,   o    .X     XX  ",
"    ,, <<112,  o     .3X   .3X  ",
"    ,, <<122,,o      .@3XX.@3X  ",
"    && >>>>%**  XX  .@@@@@@@@3X ",
"      ,,<<%%o  .@X  .@@@@@@@@3X ",
"      <<11<<   .4.  .@@@,@@@,3X ",
"     <<<1122   .@@. .@@@@444@@X ",
"     <<11122    .4@...@@44444X  ",
"    <<11122      .@4@4......X   ",
"    ,,11111       .4@4@@@@@3X   ",
"     >,,,%%       .@@@+++@@3X   ",
"     ::  %%%      .@.@...@.3X   ",
"                                ",
"                                ",
"                                "
};
