/* XPM */
static char *_49f8c2d4f0544f8f3cafb63547a4e11YPFV0rvxOY2E2l4N[] = {
/* columns rows colors chars-per-pixel */
"32 32 24 1 ",
"  c None",
". c #252525",
"X c #343434",
"o c #541600",
"O c #00376B",
"+ c gray37",
"@ c gray44",
"# c #A91919",
"$ c #9F3131",
"% c #8E6500",
"& c #9F492A",
"* c #874C37",
"= c #9F632A",
"- c #D25A5A",
"; c #D26F6F",
": c #B68100",
"> c #C38A00",
", c #2C6398",
"< c #3574B0",
"1 c #4888C5",
"2 c #689BCA",
"3 c #8B8B8B",
"4 c #B4B4B4",
"5 c white",
/* pixels */
"                                ",
"                                ",
"                                ",
"                                ",
"                       ---#     ",
"                      1111##    ",
"                    -;;---1#    ",
"                   -------$##   ",
"                   $----$$$##   ",
"                   $$$$$$$$##   ",
"                   $$$$$$$$##   ",
"                   $.==..$$##   ",
"                   $.==.5$$##   ",
"                    &===&  ##   ",
"                     OOOO  ##   ",
"                    ,211<, ##   ",
"                    ,211<,, #   ",
"  XX     X.    o   ,2111<,,     ",
"  X3.   X3.     o  ,211<< ,,    ",
"  X3@.XX3@.      o,,221<< ,,    ",
" X3@@@@@@@@.  XX  **%>>>> &&    ",
" X3@@@@@@@@.  X@.  o%%<<,,      ",
" X3,@@@,@@@.  .4.   <<11<<      ",
" X@@444@@@@. .@@.   2211<<<     ",
"  X44444@@...@4.    22111<<     ",
"   X......4@4@.      22111<<    ",
"   X3@@@@@4@4.       11111,,    ",
"   X3@@+++@@@.       %%,,,>     ",
"   X3.@...@.@.      %%%  ::     ",
"                                ",
"                                ",
"                                "
};
