/* XPM */
static char *_a961421ae2143b29d07b0b1a5c19fd5TYFQNZhuzvATnQhM[] = {
/* columns rows colors chars-per-pixel */
"32 32 22 1 ",
"  c None",
". c #252525",
"X c #343434",
"o c #541600",
"O c #00376B",
"+ c gray37",
"@ c gray44",
"# c #A91919",
"$ c #9F3131",
"% c #8E6500",
"& c #9F492A",
"* c #874C37",
"= c #D25A5A",
"- c #D26F6F",
"; c #B68100",
": c #C38A00",
"> c #2C6398",
", c #3574B0",
"< c #4888C5",
"1 c #689BCA",
"2 c #8B8B8B",
"3 c #B4B4B4",
/* pixels */
"                                ",
"                                ",
"                                ",
"                                ",
"                  #===          ",
"                 ###<<<         ",
"                 ###==--=       ",
"                ####$====$      ",
"                ###$$$$$$$      ",
"                ###$$$$$$$      ",
"                ###$$$$$$$      ",
"                ###$$$$$$$      ",
"                ###$$$$$$$      ",
"                ##  $$$$$       ",
"                ##  OOOO        ",
"                ## >,<<1>       ",
"                # >>,<<1>       ",
"      .X     XX   >>,<<<1>   o  ",
"      .2X   .2X  >> ,,<<1>  o   ",
"      .@2XX.@2X  >> ,,<11>>o    ",
" XX  .@@@@@@@@2X && ::::%**     ",
".@X  .@@@@@@@@2X   >>,,%%o      ",
".3.  .@@@@@@@@2X   ,,<<,,       ",
".@@. .@@@@@@@@@X  ,,,<<11       ",
" .3@...@@@@@@@X   ,,<<<11       ",
"  .@3@3......X   ,,<<<11        ",
"   .3@3@@@@@2X   >><<<<<        ",
"   .@@@+++@@2X    :>>>%%        ",
"   .@.@...@.2X    ;;  %%%       ",
"                                ",
"                                ",
"                                "
};
