/* XPM */
static char *_973d5edb2a94797b87ff3ef8e4ddeb4WrYtpRPR1NbTcuFu[] = {
/* columns rows colors chars-per-pixel */
"32 32 22 1 ",
"  c None",
". c #252525",
"X c #343434",
"o c #541600",
"O c #00376B",
"+ c gray37",
"@ c gray44",
"# c #A91919",
"$ c #9F3131",
"% c #8E6500",
"& c #9F492A",
"* c #874C37",
"= c #D25A5A",
"- c #D26F6F",
"; c #B68100",
": c #C38A00",
"> c #2C6398",
", c #3574B0",
"< c #4888C5",
"1 c #689BCA",
"2 c #8B8B8B",
"3 c #B4B4B4",
/* pixels */
"                                ",
"                                ",
"                                ",
"                                ",
"          ===#                  ",
"         <<<###                 ",
"       =--==###                 ",
"      $====$####                ",
"      $$$$$$$###                ",
"      $$$$$$$###                ",
"      $$$$$$$###                ",
"      $$$$$$$###                ",
"      $$$$$$$###                ",
"       $$$$$  ##                ",
"        OOOO  ##                ",
"       >1<<,> ##                ",
"       >1<<,>> #                ",
"  o   >1<<<,>>   XX     X.      ",
"   o  >1<<,, >>  X2.   X2.      ",
"    o>>11<,, >>  X2@.XX2@.      ",
"     **%:::: && X2@@@@@@@@.  XX ",
"      o%%,,>>   X2@@@@@@@@.  X@.",
"       ,,<<,,   X2@@@@@@@@.  .3.",
"       11<<,,,  X@@@@@@@@@. .@@.",
"       11<<<,,   X@@@@@@@...@3. ",
"        11<<<,,   X......3@3@.  ",
"        <<<<<>>   X2@@@@@3@3.   ",
"        %%>>>:    X2@@+++@@@.   ",
"       %%%  ;;    X2.@...@.@.   ",
"                                ",
"                                ",
"                                "
};
