/* XPM */
static char *_a6ff6d22536490eb31d49851e0a12c8PO0fiJf1NIDVHiwn[] = {
/* columns rows colors chars-per-pixel */
"32 32 19 1 ",
"  c None",
". c gray10",
"X c #541600",
"o c #00376B",
"O c #A91919",
"+ c #9F3131",
"@ c #8E6500",
"# c #9F492A",
"$ c #874C37",
"% c #9F632A",
"& c #D25A5A",
"* c #D26F6F",
"= c #B68100",
"- c #C38A00",
"; c #2C6398",
": c #3574B0",
"> c #4888C5",
", c #689BCA",
"< c white",
/* pixels */
"                                ",
"                                ",
"                                ",
"                                ",
"        O&&&                    ",
"       OO>>>>                   ",
"       O>&&&**&                 ",
"      OO+&&&&&&&                ",
"      OO+++&&&&+                ",
"      OO++++++++                ",
"      OO++++++++                ",
"      OO++..%%.+                ",
"      OO++<.%%.+                ",
"      OO  #%%%#                 ",
"      OO  oooo                  ",
"      OO ;:>>,;                 ",
"      O ;;:>>,;                 ",
"        ;;:>>>,;   X            ",
"       ;; ::>>,;  X             ",
"       ;; ::>,,;;X              ",
"       ## ----@$$               ",
"         ;;::@@X                ",
"         ::>>::                 ",
"        :::>>,,                 ",
"        ::>>>,,                 ",
"       ::>>>,,                  ",
"       ;;>>>>>                  ",
"        -;;;@@                  ",
"        ==  @@@                 ",
"                                ",
"                                ",
"                                "
};
