/* XPM */
static char *e72a05b5a63541b5878aa77051c43663lfUjVsuZ121yY8LG[] = {
/* columns rows colors chars-per-pixel */
"32 32 4 1 ",
"  c #212124",
". c gray23",
"X c #5B5B63",
"o c #9494A1",
/* pixels */
".......   ......................",
"ooooooo...oooooooooooooooooooooo",
"XXXXXXXo.XXXXXXXXXXXXXXXXXoXXXXX",
"XXoooXXo.XXXXXXXXXXXXXXXXXXXXXXX",
"XXXXXXXo.XXXXXXXXXXXXXXXXXXXXXXX",
"XXXXXXXo.XXXXXXXXXXo.XXXXXXXXXXX",
"XXXXXXXo.XXXXXXXXXXo.XXXXXXXXXXX",
"o.XXXXXo.XXXXXXXXXXXXXXXXXXXXXXX",
"XXXXXXXo.XXXXXXXXXXXXXXXXXXXXXXX",
"XXXXXXX. .XXXXXXXXXXXXXXXXXXXXXX",
".......   .............XXX......",
"ooooooooooooooooooooooo.X.oooooo",
"XXXXXXXXXXoXXXXXXXXXXXXo.XXXXXXX",
"XXXXXXXXXXXXXXXXXXXXXXXo.XXXXXXX",
"XXXXXXXXXXXXXXXXXXXXXXXo.XXXXoXX",
"XXXXXXXXXXXXXXXXXXXXXXXo.XXXXXXX",
"XXXXXXXXXXXXXXXXXXXXXXXo.XXXXXXX",
"XXXXXXXXXXXXXXXXXXXXXXXo.XXoXXXX",
"XXXXo..XXXXXXXXXXXXXXXXo.XXXXXXX",
"XXXXXXXXXXXXXXXXXXXXXXX. .XXXXXX",
".............   .......   ......",
"ooooooooooooo. .oooooooooooooooo",
"XXXXXXXXXXXXXo.XXXXXXXXXXXXo.XXX",
"XXXXXXXXXXXXXo.XXXXXXXXXXXXXXXXX",
"XXXXXXXXXXXXXo.XXXXXXXXXXXXXXXXX",
"XXXXXXXXXXXXXX.XXXXXXXXXXXXXXXXX",
"XXXXXXXXXXXXXX.XXXXXXXXXXXXXXXXX",
"XXXXXXXXXXXXXX.XXXXXXXXXXXXXoo.X",
"XoXXXXXXXXXXXX.XXXXXX.XXXXXXXXXX",
"XXXXXXXXX.XXX. .XXXXXXXXXXXXXXXX",
".............   ................",
"                                "
};
