/* XPM */
static char *f6eba9e3af53410de50d072201fe2c25CTgNMczgypx7tvRE[] = {
/* columns rows colors chars-per-pixel */
"32 32 10 1 ",
"  c #1C3319",
". c #362516",
"X c #4D351F",
"o c #264522",
"O c #2F542A",
"+ c #376331",
"@ c #447A3D",
"# c #52964A",
"$ c #4EAD44",
"% c #75C96A",
/* pixels */
"#########%#####ooooo#########$##",
"##########%##% +++@@o#######$##$",
"#####ooooo%#  ++++++@oo#####$#$#",
"$###o@@+++o +++++++++@@o####$#$#",
"#$oo@+++++@ooO++O++++++OOOOO####",
"#o@@+++++++++oO+O+++@+ +@@@@O###",
"#o+++++++++++oO++++++ ++++++@O##",
"o+++++++O++++OoO+++++ ++++++@O##",
"o++++++O+++++OoO++++ ++++++++@O#",
"o++++++++++++Oo.O+O O++O++++++@O",
"o++++++++++++OoX.O. O+++O+++++@O",
"#o+++.++O.+++o.XX.X O+++++++++@O",
"#oOO.X.O.X.OOoXXXXX O+++++++++@O",
"##ooO.X.X.Ooo#.XXXX. O+++++++@O#",
"####.XXXXX.###.XXXX.# O.OOO.@O##",
"#####.XXX.####.XXXX.##.X...X.###",
"#####.XXX.##%#.XXXX.###.XXX.####",
"#####.XXX.#%##.XXXX.###.XXX.####",
"#####.XXX.#%##.XXXX.###.XXX.####",
"%##%#.XXX.####.XXXX.###.XXX.####",
"%#%##.XXX.####.XXXX.###.XXX.####",
"%#%##.XXX.####.XXXX.###.XXX.####",
"#####.XXX.####.XXXX.###.XXX.####",
"#####.XXX.####$XXXX.###.XXX.####",
"#####.XXX.####.$XXX.###.XXX.####",
"#####.XXX.###..$..$..##.XXX.####",
"#####.XXX.#####$#$####.XXX%X.###",
"#####.XXX.#####$#$###...%..%..##",
"####.XXXXX.##############%#%##%#",
"###.........#############%#%#%##",
"#########################%#%#%##",
"################################"
};
